<?xml version="1.0" encoding="UTF-8"?>
<!DOCTYPE svg PUBLIC "-//W3C//DTD SVG 1.1//EN" "http://www.w3.org/Graphics/SVG/1.1/DTD/svg11.dtd">
<!-- Creator: CorelDRAW X8 -->
<svg xmlns="http://www.w3.org/2000/svg" xml:space="preserve" width="1.51292in" height="0.945654in" version="1.1" style="shape-rendering:geometricPrecision; text-rendering:geometricPrecision; image-rendering:optimizeQuality; fill-rule:evenodd; clip-rule:evenodd"
viewBox="0 0 173 108"
 xmlns:xlink="http://www.w3.org/1999/xlink">
 <defs>
  <style type="text/css">
   <![CDATA[
    .fil0 {fill:#FEFEFE}
   ]]>
  </style>
 </defs>
 <g id="Layer_x0020_1">
  <metadata id="CorelCorpID_0Corel-Layer"/>
  <g id="_2754804742096">
   <g>
    <g>
     <g>
      <path class="fil0" d="M71 49c4,-2 6,-4 8,-6 3,-4 5,-9 5,-16 0,-6 -2,-11 -5,-16 -5,-7 -14,-11 -27,-11l-52 0 0 105 48 0c5,0 10,0 15,-1 5,-1 9,-3 12,-5 3,-3 6,-5 8,-9 3,-5 4,-10 4,-17 0,-6 -1,-11 -4,-15 -2,-4 -7,-7 -12,-9zm-50 -31l23 0c6,0 10,1 13,2 4,1 6,5 6,10 0,4 -2,7 -5,9 -2,2 -6,2 -11,2l-26 0 0 -23zm37 67c-3,1 -6,2 -11,2l-26 0 0 -28 27 0c4,0 8,1 10,2 5,2 7,5 7,11 0,6 -2,11 -7,13z"/>
      <rect class="fil0" x="110" y="5" width="45.7058" height="13.0958"/>
      <path class="fil0" d="M172 57c-1,-7 -3,-12 -6,-16 -4,-6 -9,-10 -14,-12 -6,-2 -12,-4 -19,-4 -11,0 -21,4 -28,11 -7,7 -11,18 -11,31 0,15 4,25 12,31 8,7 18,10 28,10 13,0 23,-4 30,-11 4,-5 7,-10 7,-15l-21 0c-1,3 -2,5 -4,6 -3,2 -7,3 -11,3 -5,0 -8,-1 -12,-3 -5,-3 -8,-8 -8,-16l58 0c0,-7 -1,-12 -1,-15zm-56 2c0,-5 2,-9 5,-12 3,-3 7,-5 12,-5 5,0 9,2 13,4 3,3 5,7 5,13l-35 0z"/>
     </g>
    </g>
   </g>
   <g>
   </g>
   <g>
   </g>
   <g>
   </g>
   <g>
   </g>
   <g>
   </g>
   <g>
   </g>
   <g>
   </g>
   <g>
   </g>
   <g>
   </g>
   <g>
   </g>
   <g>
   </g>
   <g>
   </g>
   <g>
   </g>
   <g>
   </g>
   <g>
   </g>
  </g>
 </g>
</svg>
