<?xml version="1.0" encoding="UTF-8"?>
<!DOCTYPE svg PUBLIC "-//W3C//DTD SVG 1.1//EN" "http://www.w3.org/Graphics/SVG/1.1/DTD/svg11.dtd">
<!-- Creator: CorelDRAW X8 -->
<svg xmlns="http://www.w3.org/2000/svg" xml:space="preserve" width="1.03248in" height="0.943138in" version="1.1" style="shape-rendering:geometricPrecision; text-rendering:geometricPrecision; image-rendering:optimizeQuality; fill-rule:evenodd; clip-rule:evenodd"
viewBox="0 0 65 60"
 xmlns:xlink="http://www.w3.org/1999/xlink">
 <defs>
  <style type="text/css">
   <![CDATA[
    .fil0 {fill:#FEFEFE}
   ]]>
  </style>
 </defs>
 <g id="Layer_x0020_1">
  <metadata id="CorelCorpID_0Corel-Layer"/>
  <g id="_2754804739728">
   <g>
    <g>
     <path class="fil0" d="M2 60l9 0c1,0 2,-1 2,-3l0 -37c0,-1 -1,-2 -2,-2l-9 0c-1,0 -2,1 -2,2l0 37c0,2 1,3 2,3z"/>
     <path class="fil0" d="M2 12l9 0c1,0 2,-1 2,-2l0 -8c0,-1 -1,-2 -2,-2l-9 0c-1,0 -2,1 -2,2l0 8c0,1 1,2 2,2z"/>
     <path class="fil0" d="M62 23c-1,-2 -3,-3 -5,-4 -3,-1 -5,-2 -8,-2 -6,0 -10,2 -14,7 -1,1 -2,0 -2,-1l0 -3c0,-1 -1,-2 -2,-2l-7 0c-2,0 -3,1 -3,2l0 37c0,2 1,3 3,3l8 0c1,0 2,-1 2,-3l0 -12c0,-6 0,-10 1,-11 1,-2 2,-4 4,-5 1,-1 3,-2 6,-2 1,0 3,0 4,1 1,1 2,2 3,4 0,1 0,5 0,10l0 15c0,2 1,3 3,3l8 0c1,0 2,-1 2,-3l0 -21c0,-3 0,-6 -1,-8 0,-2 -1,-4 -2,-5z"/>
    </g>
   </g>
   <g>
   </g>
   <g>
   </g>
   <g>
   </g>
   <g>
   </g>
   <g>
   </g>
   <g>
   </g>
   <g>
   </g>
   <g>
   </g>
   <g>
   </g>
   <g>
   </g>
   <g>
   </g>
   <g>
   </g>
   <g>
   </g>
   <g>
   </g>
   <g>
   </g>
  </g>
 </g>
</svg>
