<?xml version="1.0" encoding="UTF-8"?>
<!DOCTYPE svg PUBLIC "-//W3C//DTD SVG 1.1//EN" "http://www.w3.org/Graphics/SVG/1.1/DTD/svg11.dtd">
<!-- Creator: CorelDRAW X8 -->
<svg xmlns="http://www.w3.org/2000/svg" xml:space="preserve" width="0.944492in" height="0.944453in" version="1.1" style="shape-rendering:geometricPrecision; text-rendering:geometricPrecision; image-rendering:optimizeQuality; fill-rule:evenodd; clip-rule:evenodd"
viewBox="0 0 41 41"
 xmlns:xlink="http://www.w3.org/1999/xlink">
 <defs>
  <style type="text/css">
   <![CDATA[
    .fil0 {fill:#FEFEFE}
   ]]>
  </style>
 </defs>
 <g id="Layer_x0020_1">
  <metadata id="CorelCorpID_0Corel-Layer"/>
  <g id="_2754804734512">
   <g>
    <g>
     <path class="fil0" d="M31 3c-4,-2 -7,-3 -11,-3 -3,0 -7,1 -10,3 -3,2 -5,4 -7,7 -2,3 -3,7 -3,10 0,4 1,8 3,12 3,3 6,5 9,7 0,-2 0,-3 1,-5l2 -11c0,-1 0,-2 0,-3 0,-1 0,-3 1,-4 0,-1 1,-1 2,-1 1,0 2,0 2,1 1,0 1,1 1,2 0,0 0,1 0,2 0,1 -1,2 -1,3 0,1 0,1 -1,2 0,1 0,2 1,3 1,1 2,1 3,1 1,0 3,-1 4,-3 1,-2 2,-5 2,-8 0,-2 -1,-4 -2,-6 -2,-1 -4,-2 -6,-2 -3,0 -6,1 -8,3 -2,2 -2,4 -2,7 0,2 0,3 1,4 0,0 0,1 0,1 0,0 0,1 0,1 0,0 0,1 0,1 0,0 -1,1 -1,0 -2,0 -3,-1 -3,-3 -1,-1 -1,-3 -1,-4 0,-2 0,-3 0,-4 1,-1 1,-2 2,-3 1,-2 2,-3 3,-3 1,-1 2,-2 4,-2 2,-1 3,-1 5,-1 3,0 5,0 7,2 2,1 3,2 4,4 2,2 2,3 2,6 0,2 0,5 -1,7 -1,2 -3,3 -4,5 -2,1 -4,1 -6,1 -1,0 -2,0 -3,0 -1,-1 -2,-1 -2,-2 -1,3 -1,5 -1,6 -1,1 -1,2 -2,4 1,0 3,1 5,1 4,0 7,-1 11,-3 3,-2 5,-4 7,-7 2,-4 3,-7 3,-11 0,-3 -1,-7 -3,-10 -2,-3 -4,-5 -7,-7z"/>
    </g>
   </g>
   <g>
   </g>
   <g>
   </g>
   <g>
   </g>
   <g>
   </g>
   <g>
   </g>
   <g>
   </g>
   <g>
   </g>
   <g>
   </g>
   <g>
   </g>
   <g>
   </g>
   <g>
   </g>
   <g>
   </g>
   <g>
   </g>
   <g>
   </g>
   <g>
   </g>
  </g>
 </g>
</svg>
