<?xml version="1.0" encoding="UTF-8"?>
<!DOCTYPE svg PUBLIC "-//W3C//DTD SVG 1.1//EN" "http://www.w3.org/Graphics/SVG/1.1/DTD/svg11.dtd">
<!-- Creator: CorelDRAW X8 -->
<svg xmlns="http://www.w3.org/2000/svg" xml:space="preserve" width="5.16834in" height="1.1757in" version="1.1" style="shape-rendering:geometricPrecision; text-rendering:geometricPrecision; image-rendering:optimizeQuality; fill-rule:evenodd; clip-rule:evenodd"
viewBox="0 0 1085 247"
 xmlns:xlink="http://www.w3.org/1999/xlink">
 <defs>
  <style type="text/css">
   <![CDATA[
    .fil0 {fill:#FEFEFE;fill-rule:nonzero}
   ]]>
  </style>
 </defs>
 <g id="Layer_x0020_1">
  <metadata id="CorelCorpID_0Corel-Layer"/>
  <g id="_2754803756272">
   <path class="fil0" d="M123 0c34,0 65,14 88,36 10,11 19,23 25,36l-8 0c-6,-11 -13,-22 -22,-31 -21,-21 -51,-34 -83,-34 -32,0 -61,13 -82,34 -21,21 -34,50 -34,82 0,32 13,62 34,83 21,21 50,34 82,34 32,0 62,-13 83,-34 9,-9 16,-20 22,-32l8 0c-6,14 -15,26 -25,37 -23,22 -54,36 -88,36 -34,0 -65,-14 -87,-36 -22,-23 -36,-54 -36,-88 0,-34 14,-65 36,-87 22,-22 53,-36 87,-36z"/>
   <polygon class="fil0" points="96,7 96,237 89,237 89,7 "/>
   <path class="fil0" d="M135 122c12,0 23,5 31,13 8,8 13,19 13,32 0,12 -5,23 -13,31 -8,8 -19,13 -31,13 -12,0 -23,-5 -31,-13 -8,-8 -13,-19 -13,-31 0,-13 5,-24 13,-32 8,-8 19,-13 31,-13zm26 18c-6,-6 -16,-10 -26,-10 -10,0 -20,4 -26,10 -7,7 -11,16 -11,27 0,10 4,19 11,26 6,7 16,11 26,11 10,0 20,-4 26,-11 7,-7 11,-16 11,-26 0,-11 -4,-20 -11,-27z"/>
   <polygon class="fil0" points="110,7 110,136 103,136 103,7 "/>
  </g>
  <path class="fil0" d="M387 181c2,1 4,2 5,4 2,1 2,3 2,6 0,4 -1,6 -4,8 -2,2 -6,3 -11,3l-21 0 0 -41 19 0c5,0 9,1 11,3 3,2 4,5 4,8 0,2 0,4 -1,5 -1,2 -2,3 -4,4zm-21 -14l0 12 11 0c2,0 4,-1 6,-2 1,-1 2,-2 2,-4 0,-2 -1,-3 -2,-4 -2,-1 -4,-2 -6,-2l-11 0zm12 29c6,0 9,-2 9,-6 0,-4 -3,-6 -9,-6l-12 0 0 12 12 0zm87 0l0 6 -31 0 0 -41 30 0 0 7 -22 0 0 10 20 0 0 7 -20 0 0 11 23 0zm66 -3l-20 0 -4 9 -8 0 19 -41 7 0 18 41 -7 0 -5 -9zm-2 -6l-8 -18 -7 18 15 0zm-5 -37l9 0 -10 8 -6 0 7 -8zm65 18l-14 0 0 -7 35 0 0 7 -14 0 0 34 -7 0 0 -34zm85 25l-21 0 -4 9 -7 0 18 -41 7 0 19 41 -8 0 -4 -9zm-3 -6l-7 -18 -8 18 15 0zm102 16c-4,0 -7,-1 -11,-3 -3,-2 -6,-4 -7,-8 -2,-3 -3,-6 -3,-10 0,-4 1,-8 3,-11 2,-3 4,-6 7,-7 4,-2 7,-3 12,-3 3,0 6,0 9,2 2,1 5,2 7,5l-5 4c-3,-3 -7,-4 -11,-4 -3,0 -5,0 -8,1 -2,2 -4,3 -5,5 -1,3 -2,5 -2,8 0,2 1,5 2,7 1,2 3,4 5,5 3,1 5,2 8,2 4,0 8,-2 11,-5l5 5c-2,2 -5,4 -7,5 -3,1 -6,2 -10,2zm68 0c-3,0 -6,-1 -9,-2 -3,-1 -5,-2 -7,-3l3 -6c2,1 4,2 6,3 2,1 5,1 7,1 3,0 6,0 7,-1 2,-1 2,-2 2,-4 0,-1 0,-2 -1,-3 -1,-1 -2,-1 -3,-2 -1,0 -3,0 -5,-1 -3,-1 -6,-1 -8,-2 -2,-1 -3,-2 -5,-4 -1,-1 -2,-3 -2,-6 0,-2 1,-4 2,-6 1,-2 3,-3 6,-4 2,-2 5,-2 9,-2 2,0 4,0 7,1 2,0 4,1 6,2l-2 6c-2,-1 -4,-1 -6,-2 -2,-1 -4,-1 -6,-1 -2,0 -5,1 -6,2 -2,1 -2,2 -2,4 0,1 0,2 1,2 1,1 2,2 3,2 1,1 3,1 5,2 3,0 6,1 8,2 2,1 3,2 5,3 1,2 2,4 2,7 0,2 -1,4 -2,6 -1,1 -3,3 -6,4 -2,1 -5,2 -9,2zm82 -10l-20 0 -4 9 -8 0 19 -41 7 0 18 41 -8 0 -4 -9zm-2 -6l-8 -18 -7 18 15 0zm-5 -37l9 0 -10 8 -7 0 8 -8zm70 35l-6 7 0 10 -8 0 0 -41 8 0 0 21 20 -21 9 0 -18 19 19 22 -9 0 -15 -17zm87 8l-20 0 -4 9 -8 0 18 -41 8 0 18 41 -8 0 -4 -9zm-3 -6l-7 -18 -8 18 15 0z"/>
 </g>
</svg>
